<svg width="25" height="25" viewBox="0 0 25 25" fill="none" xmlns="http://www.w3.org/2000/svg">
<path d="M12.5 12.5C15.9518 12.5 18.75 9.70178 18.75 6.25C18.75 2.79822 15.9518 0 12.5 0C9.04822 0 6.25 2.79822 6.25 6.25C6.25 9.70178 9.04822 12.5 12.5 12.5ZM16.6667 6.25C16.6667 8.55119 14.8012 10.4167 12.5 10.4167C10.1988 10.4167 8.33333 8.55119 8.33333 6.25C8.33333 3.94881 10.1988 2.08333 12.5 2.08333C14.8012 2.08333 16.6667 3.94881 16.6667 6.25Z" fill="black"/>
<path d="M25 22.9167C25 25 22.9167 25 22.9167 25H2.08333C2.08333 25 0 25 0 22.9167C0 20.8333 2.08333 14.5833 12.5 14.5833C22.9167 14.5833 25 20.8333 25 22.9167ZM22.9166 22.9094C22.9137 22.3953 22.5963 20.8551 21.1831 19.4419C19.8242 18.083 17.269 16.6667 12.5 16.6667C7.731 16.6667 5.17574 18.083 3.81687 19.4419C2.40366 20.8551 2.0863 22.3953 2.08333 22.9094H22.9166Z" fill="black"/>
</svg>
