<?xml version="1.0" encoding="utf-8"?>
<!-- Generator: Adobe Illustrator 28.2.0, SVG Export Plug-In . SVG Version: 6.00 Build 0)  -->
<svg version="1.1" id="레이어_1" xmlns="http://www.w3.org/2000/svg" xmlns:xlink="http://www.w3.org/1999/xlink" x="0px"
	 y="0px" viewBox="0 0 51 50" style="enable-background:new 0 0 51 50;" xml:space="preserve">
<style type="text/css">
	.st0{fill:#1D1D1D;fill-opacity:0.8;}
</style>
<path class="st0" d="M50.6,24.5c0,1.5-2.5-0.1-3.1,3.4c-4.8,13-16.8,6.5-22.6,1.4c-12.1,6.4,1.4,21.5,7.4,8.1
	c0.5-2.3,0.9-0.1,1.9,0.1c1.8-0.7,1.3,0,2.6,0.6c1.2-0.2,4.4-1.6,1.9,0.5c-4,6-9.2,7.5-12.5,11.4c-0.9-0.7-0.1-2.8-2.5-3.1
	c-12-2.7-9.5-16.5-1.8-22.2c-7.2-14.5-20.9,2.8-8.2,7.4c-0.8,1.2,0.3,2.3-0.6,3.9C16.8,46,0.6,24.6,0,24c0.3-1,3.5,1.3,3.9-1.3
	C9.1,8.9,21.1,17.4,27.1,21c12.6-10.1-4.6-20.4-8.3-7c-0.7-0.7-1.8-0.7-2.6-0.3c-1-2-3.8,0.1-4.8-1.2c3.7-3.2,8.7-8.7,12.3-10
	c1.6-2.7,2.2-3.3,2.5-1.1c8.2,4.2,16.7,14.7,4.2,22.8c-3,13.7,24.5,3.9,7.3-6.2c0.5-0.7,0.6-1,0.3-2.2c1.4-1.5-0.2-3.1,0.3-4.9
	C43.8,15.5,46.8,20.5,50.6,24.5L50.6,24.5z"/>
</svg>
