<svg width="19" height="15" viewBox="0 0 19 15" fill="none" xmlns="http://www.w3.org/2000/svg">
<path fill-rule="evenodd" clip-rule="evenodd" d="M0 14.1667C0 13.7064 0.373096 13.3333 0.833333 13.3333H17.5C17.9602 13.3333 18.3333 13.7064 18.3333 14.1667C18.3333 14.6269 17.9602 15 17.5 15H0.833333C0.373096 15 0 14.6269 0 14.1667Z" fill="black" fill-opacity="0.8"/>
<path fill-rule="evenodd" clip-rule="evenodd" d="M0 7.5C0 7.03976 0.373096 6.66667 0.833333 6.66667H17.5C17.9602 6.66667 18.3333 7.03976 18.3333 7.5C18.3333 7.96024 17.9602 8.33333 17.5 8.33333H0.833333C0.373096 8.33333 0 7.96024 0 7.5Z" fill="black" fill-opacity="0.8"/>
<path fill-rule="evenodd" clip-rule="evenodd" d="M0 0.833333C0 0.373096 0.373096 0 0.833333 0H17.5C17.9602 0 18.3333 0.373096 18.3333 0.833333C18.3333 1.29357 17.9602 1.66667 17.5 1.66667H0.833333C0.373096 1.66667 0 1.29357 0 0.833333Z" fill="black" fill-opacity="0.8"/>
</svg>
